<?xml version="1.0" encoding="utf-8"?>
<!-- Generator: Adobe Illustrator 22.0.1, SVG Export Plug-In . SVG Version: 6.00 Build 0)  -->
<svg version="1.1" id="Слой_1" xmlns="http://www.w3.org/2000/svg" xmlns:xlink="http://www.w3.org/1999/xlink" x="0px" y="0px"
	 viewBox="0 0 70.708 67.7" style="enable-background:new 0 0 70.708 67.7;" xml:space="preserve">
<g>
	<path style="fill-rule:evenodd;clip-rule:evenodd;fill:#1C93D2;" d="M35.353,0L35.353,0c2.559,0,4.652,2.093,4.652,4.652v17.293
		c0,2.559-2.093,4.652-4.652,4.652l0,0c-2.559,0-4.652-2.093-4.652-4.652V4.652C30.702,2.093,32.795,0,35.353,0L35.353,0z"/>
	<path style="fill-rule:evenodd;clip-rule:evenodd;fill:#1C93D2;" d="M0.227,25.522L0.227,25.522
		c0.791-2.434,3.428-3.777,5.862-2.987l16.447,5.344c2.434,0.791,3.777,3.428,2.987,5.862l0,0c-0.791,2.434-3.428,3.778-5.862,2.987
		L3.213,31.384C0.78,30.593-0.564,27.955,0.227,25.522L0.227,25.522z"/>
	<path style="fill-rule:evenodd;clip-rule:evenodd;fill:#1C93D2;" d="M13.645,66.816L13.645,66.816
		c-2.07-1.504-2.533-4.428-1.029-6.498L22.78,46.327c1.504-2.07,4.428-2.533,6.498-1.029l0,0c2.07,1.504,2.533,4.428,1.029,6.498
		L20.143,65.787C18.639,67.857,15.715,68.32,13.645,66.816L13.645,66.816z"/>
	<path style="fill-rule:evenodd;clip-rule:evenodd;fill:#1C93D2;" d="M57.064,66.815L57.064,66.815
		c-2.07,1.504-4.994,1.041-6.498-1.029L40.401,51.795c-1.504-2.07-1.041-4.994,1.029-6.498l0,0c2.07-1.504,4.994-1.041,6.498,1.029
		l10.165,13.991C59.597,62.387,59.134,65.311,57.064,66.815L57.064,66.815z"/>
	<path style="fill-rule:evenodd;clip-rule:evenodd;fill:#1C93D2;" d="M70.481,25.521L70.481,25.521
		c0.791,2.434-0.553,5.071-2.987,5.862l-16.447,5.344c-2.434,0.791-5.071-0.553-5.862-2.987l0,0
		c-0.791-2.433,0.553-5.071,2.987-5.862l16.447-5.344C67.053,21.743,69.69,23.087,70.481,25.521L70.481,25.521z"/>
</g>
</svg>
