<?xml version="1.0" encoding="utf-8"?>
<!-- Generator: Adobe Illustrator 22.0.1, SVG Export Plug-In . SVG Version: 6.00 Build 0)  -->
<svg version="1.1" id="Layer_1" xmlns="http://www.w3.org/2000/svg" xmlns:xlink="http://www.w3.org/1999/xlink" x="0px" y="0px"
	 viewBox="0 0 245.024 245.001" style="enable-background:new 0 0 245.024 245.001;" xml:space="preserve">
<path style="fill:#FFC10E;" d="M0,122.501C0,54.826,54.845,0,122.491,0c67.7,0,122.533,54.826,122.533,122.501
	c0,67.681-54.833,122.5-122.533,122.5c-13.358,0-26.2-2.146-38.229-6.064c8.711-50.563,40.634-91.792,82.826-109.297
	c5.013,5.794,12.393,9.44,20.629,9.44c15.03,0,27.205-12.191,27.205-27.249c0-15.045-12.175-27.241-27.205-27.241
	c-15.043,0-27.217,12.159-27.247,27.188C106.63,127.97,63.007,165.554,40.866,213.857c-7.039-6.285-13.312-13.364-18.723-21.096
	c1.268-47.038,24.534-88.146,59.38-112.372c4.999,5.622,12.267,9.167,20.366,9.167c15.045,0,27.23-12.233,27.23-27.257
	c0-15.062-12.185-27.247-27.23-27.247c-15.062,0-27.247,12.185-27.247,27.247c0,0.788,0.053,1.594,0.116,2.338
	c-32.456,11.385-59.09,33.913-74.674,62.611C0.008,125.697,0,124.088,0,122.501"/>
</svg>
