<?xml version="1.0" encoding="utf-8"?>
<!-- Generator: Adobe Illustrator 22.0.1, SVG Export Plug-In . SVG Version: 6.00 Build 0)  -->
<svg version="1.1" id="Слой_3" xmlns="http://www.w3.org/2000/svg" xmlns:xlink="http://www.w3.org/1999/xlink" x="0px" y="0px"
	 viewBox="0 0 499.745 499.745" style="enable-background:new 0 0 499.745 499.745;" xml:space="preserve">
<g>
	<path style="fill:#FFFFFF;" d="M396.103,123.94l-29.88-25.833l-29.893,25.842l-7.196,6.221l119.573,103.373
		c-1.704-21.171-6.724-41.736-15.009-61.324c-4.109-9.715-8.956-19.017-14.489-27.883L396.103,123.94z"/>
	<g>
		<path style="fill:#FFFFFF;" d="M248.552,277.921c-0.183-0.417-0.366-0.836-0.551-1.257c-3.491,7.598-7.278,14.518-11.465,20.982
			c4.607,2.408,8.29,5.544,11.122,9.508c2.853-3.785,6.795-6.965,11.753-9.495c-2.733-4.009-5.343-8.019-7.503-12.383
			C250.702,282.838,249.608,280.338,248.552,277.921z"/>
		<path style="fill:#FFFFFF;" d="M234.426,319.739c-1.146-2.394-3.117-4.858-6.505-6.411c-0.722,2.115-1.252,4.255-1.622,6.411
			H234.426z"/>
		<path style="fill:#FFFFFF;" d="M194.963,281.441c0,11.147,8.697,17.493,16.3,19.615c1.026-1.758,2.141-3.536,3.32-5.372
			c-4.215-1.07-7.862-3.578-10.122-7.04c-2.062-3.158-2.744-6.803-1.922-10.264c1.457-6.714,8.087-11.65,15.815-11.774
			c-0.089-0.979-0.197-2.144-0.324-3.472h-10.702C202.454,265.499,194.963,270.857,194.963,281.441z"/>
		<path style="fill:#FFFFFF;" d="M261.585,319.739h8.29c-0.374-2.151-0.931-4.305-1.695-6.457
			C264.734,314.832,262.742,317.323,261.585,319.739z"/>
		<path style="fill:#FFFFFF;" d="M220.212,319.739c1.117-7.522,4.091-14.825,8.854-21.706c5.763-8.326,10.754-17.441,15.26-27.865
			c0.218-0.504,0.465-0.998,0.715-1.491l2.948-5.976l2.695,5.444c1.209,2.442,2.305,4.947,3.364,7.37
			c1.029,2.354,2.094,4.787,3.236,7.097c2.256,4.557,5.117,8.823,8.097,13.156l1.564,2.265c4.898,7.076,7.926,14.377,9.019,21.705
			h9.246c-0.812-8.481-4.917-14.819-10.539-23.469c-2.245-3.455-4.79-7.37-7.391-11.86l-0.143-0.278
			c-5.774-12.894-11.787-28.126-13.245-44.259h-3.271h-0.839h-7.666c-1.458,16.133-7.471,31.366-13.245,44.259l-0.143,0.278
			c-2.586,4.464-5.114,8.362-7.346,11.801c-5.625,8.672-9.733,15.026-10.546,23.528H220.212z"/>
		<path style="fill:#FFFFFF;" d="M307.049,281.441c0,13.043-9.493,21.766-19.42,25.015c1.913,4.105,3.211,8.356,3.606,13.283h21.896
			v-37.96v-2.812v-83.594c-7.218,8.077-13.2,17.005-16.35,31.214c-2.27,9.711-3.846,24.699-4.497,31.65
			C301.691,263.165,307.049,271.528,307.049,281.441z"/>
		<path style="fill:#FFFFFF;" d="M301.049,281.441c0-10.584-7.491-15.942-12.365-18.307h-10.702
			c-0.127,1.329-0.235,2.494-0.324,3.472c7.729,0.124,14.358,5.061,15.828,11.831c0.81,3.404,0.127,7.049-1.935,10.207
			c-2.259,3.459-5.902,5.967-10.113,7.038c1.181,1.835,2.298,3.613,3.327,5.37C292.363,298.924,301.049,292.58,301.049,281.441z"/>
		<path style="fill:#FFFFFF;" d="M188.963,281.441c0-9.913,5.357-18.276,14.765-23.204c-0.652-6.951-2.227-21.938-4.49-31.617
			c-3.156-14.236-9.14-23.169-16.357-31.248v83.594v2.812v37.96h21.934c0.394-4.922,1.688-9.172,3.593-13.275
			C198.472,303.221,188.963,294.494,188.963,281.441z"/>
		<path style="fill:#FFFFFF;" d="M242.268,233.873h7.516h0.839h3.121c0.238-9.397,0.925-20.647,1.593-31.568
			c0.735-12.021,1.495-24.451,1.644-34.246c0-2.894-0.471-5.815-1.398-8.639c-1.464-4.454-4.008-8.538-7.576-12.17
			c-1.611,1.604-2.993,3.302-4.188,5.143c-3.167,4.881-4.867,10.444-4.787,15.666c0.148,9.796,0.908,22.226,1.644,34.247
			C241.343,213.226,242.03,224.476,242.268,233.873z"/>
		<path style="fill:#FFFFFF;" d="M284.193,222.084c-2.21,10.661-4.541,25.97-5.568,35.05h7.737
			c0.694-7.306,2.285-22.105,4.57-31.879c4.2-18.952,13.3-29.524,23.048-39.55l5.151-5.297v98.56h7.495V168.064
			c-1.982,1.102-3.812,2.191-5.583,3.321C300.296,185.182,288.571,201.302,284.193,222.084z"/>
		<path style="fill:#FFFFFF;" d="M319.131,325.739h-59.12c-0.024,0.358-0.029,0.624-0.029,0.758v5.08h66.645v-46.61h-7.495V325.739z
			"/>
		<path style="fill:#FFFFFF;" d="M259.981,337.577v17.646c3.645-4.989,7.511-11.638,9.927-17.646H259.981z"/>
		<path style="fill:#FFFFFF;" d="M449.203,241.904L248.142,68.083l-90.37,78.127L50.665,239.077
			c-0.19,3.583-0.292,7.181-0.292,10.795c0,26.936,5.274,53.062,15.674,77.652c10.048,23.755,24.433,45.092,42.758,63.416
			c18.324,18.324,39.661,32.71,63.416,42.758c24.59,10.401,50.716,15.674,77.652,15.674s53.062-5.274,77.652-15.674
			c23.755-10.048,45.092-24.433,63.416-42.758c18.324-18.324,32.71-39.661,42.758-63.416c10.401-24.59,15.674-50.716,15.674-77.652
			C449.373,247.207,449.306,244.553,449.203,241.904z M332.626,278.967v2.812v55.798h-42.032
			c-2.136,7.911-6.301,16.093-12.697,24.932c-3.197,4.417-6.582,8.364-10.061,11.734c-1.64,1.588-3.402,2.963-5.107,4.292
			c-1.605,1.252-3.121,2.435-4.498,3.752c-3.204,3.064-5.484,5.246-7.847,8.601l-2.598,3.69l-2.397-3.823
			c-1.585-2.528-3.448-4.343-5.605-6.444c-0.601-0.585-1.217-1.185-1.847-1.819c-1.44-1.449-3.075-2.727-4.807-4.078
			c-1.653-1.292-3.364-2.628-4.955-4.169c-3.479-3.371-6.864-7.318-10.061-11.735c-6.397-8.838-10.562-17.02-12.698-24.932h-42.032
			v-55.798v-2.812V158.164l4.366,2.234c3.964,2.028,7.282,3.912,10.443,5.929c22.237,14.786,34.771,32.101,39.494,54.521
			c2.375,11.457,4.74,27.205,5.736,36.286h0.044l0.268,2.704c0.596,6.007,0.901,9.749,0.904,9.785l0.288,3.543l-6.401-0.562
			c-4.921,0.05-9.267,3.088-10.139,7.105c-0.574,2.42,0.28,4.405,1.096,5.654c1.518,2.325,4.183,4.054,7.16,4.657l1.578,0.026
			c1.667-2.595,3.443-5.42,5.237-8.509c5.857-13.091,11.943-28.625,12.867-44.738c-0.153-9.777-0.91-22.155-1.641-34.127
			c-0.739-12.088-1.504-24.588-1.655-34.521c-0.098-6.398,1.945-13.155,5.754-19.023c1.975-3.044,4.362-5.746,7.299-8.26
			l1.983-1.699l1.956,1.731c5.414,4.792,9.202,10.394,11.259,16.648c1.127,3.43,1.698,6.982,1.698,10.558
			c-0.151,9.979-0.916,22.479-1.655,34.567c-0.732,11.973-1.489,24.35-1.641,34.127c0.924,16.113,7.01,31.648,12.867,44.738
			c1.787,3.078,3.557,5.89,5.221,8.478h1.624c2.966-0.608,5.618-2.334,7.131-4.651c0.815-1.249,1.67-3.234,1.108-5.597
			c-0.885-4.074-5.23-7.112-10.151-7.163l-6.401,0.562l0.288-3.543c0.003-0.037,0.309-3.778,0.904-9.785l0.268-2.704h0.044
			c0.996-9.081,3.36-24.829,5.734-36.277c4.725-22.43,17.259-39.744,39.448-54.499c3.209-2.048,6.527-3.932,10.491-5.96l4.366-2.234
			V278.967z"/>
		<path style="fill:#FFFFFF;" d="M176.881,180.407l5.151,5.297c9.748,10.026,18.848,20.598,23.056,39.584
			c2.278,9.743,3.868,24.54,4.562,31.846h7.737c-1.027-9.08-3.358-24.39-5.57-35.059c-4.376-20.773-16.101-36.893-36.896-50.721
			c-1.742-1.111-3.559-2.192-5.535-3.291v110.903h7.495V180.407z"/>
		<path style="fill:#FFFFFF;" d="M236.03,326.497c0-0.134-0.005-0.399-0.029-0.758h-59.12v-40.772h-7.495v46.61h66.645V326.497z"/>
		<path style="fill:#FFFFFF;" d="M259.016,365.528l-5.035,4.648v-43.679c0-6.474,3.164-14.877,11.814-18.711
			c-0.871-1.71-1.865-3.414-2.978-5.11c-5.679,2.764-9.78,6.421-12.162,10.91l-3.074,5.563L244.6,313.6
			c-2.579-4.86-6.24-8.353-11.408-10.919c-1.1,1.685-2.083,3.392-2.943,5.121c8.624,3.841,11.78,12.23,11.78,18.695v43.679
			l-5.035-4.648c-5.463-5.043-13.631-17.613-17.306-27.951h-8.029c2.061,6.725,5.782,13.768,11.315,21.414
			c2.992,4.134,6.146,7.815,9.375,10.943c1.361,1.318,2.873,2.5,4.474,3.75c1.801,1.406,3.663,2.861,5.369,4.578
			c0.606,0.609,1.199,1.187,1.777,1.75c1.394,1.357,2.741,2.67,4.02,4.176c1.863-2.191,3.791-4.035,6.045-6.191
			c1.645-1.572,3.353-2.905,5.005-4.193c1.653-1.289,3.214-2.506,4.622-3.869c3.228-3.128,6.382-6.81,9.375-10.944
			c5.532-7.646,9.253-14.688,11.314-21.414h-8.03C272.647,347.915,264.48,360.484,259.016,365.528z"/>
		<path style="fill:#FFFFFF;" d="M236.03,337.577h-9.927c2.417,6.008,6.283,12.658,9.927,17.646V337.577z"/>
	</g>
	<path style="fill:#FFFFFF;" d="M153.846,141.674l13.305-11.503l-37.088-32.063l-29.846,25.802l-16.491,15.475
		c-6.883,10.331-12.797,21.295-17.679,32.836c-7.9,18.677-12.834,38.241-14.754,58.371L153.846,141.674z"/>
	<path style="fill:#FFFFFF;" d="M249.873,0C111.872,0,0,111.872,0,249.873s111.872,249.873,249.873,249.873
		c138.001,0,249.873-111.872,249.873-249.873S387.873,0,249.873,0z M249.873,457.373c-114.599,0-207.5-92.901-207.5-207.5
		s92.901-207.5,207.5-207.5s207.5,92.901,207.5,207.5S364.472,457.373,249.873,457.373z"/>
</g>
<g>
	<path style="fill:#0B4C9E;" d="M45.071,293.401l1.259,4.632l-11.043,8.18l1.257,4.631l13.663,1.472l1.257,4.633l-29.955-3.472
		l-1.258-4.633l11.576,1.417l-1.572-5.791L45.071,293.401z"/>
	<path style="fill:#0B4C9E;" d="M24.874,325.003l19.125-7.102l1.461,3.938l-7.5,2.785l1.045,2.813l9.658,3.026l1.67,4.5
		l-11.387-3.665l-7.527,11.328l-1.81-4.874l5.903-8.807l-1.113-2.999l-8.063,2.993L24.874,325.003z"/>
	<path style="fill:#0B4C9E;" d="M26.036,349.203l25.138-12.334l1.851,3.771l-2.334,1.145l0.088,0.18
		c0.714,0.184,1.397,0.457,2.051,0.819c1.544,0.847,2.697,2.048,3.462,3.604c1.21,2.465,1.337,4.949,0.383,7.453
		c-0.955,2.504-2.846,4.448-5.67,5.834c-2.825,1.387-5.52,1.69-8.084,0.915c-2.564-0.777-4.451-2.398-5.662-4.863
		c-0.774-1.58-1.03-3.222-0.768-4.925c0.125-0.773,0.339-1.489,0.642-2.143l-0.088-0.18l-9.156,4.494L26.036,349.203z
		 M49.07,344.339c-1.53-0.423-3.264-0.158-5.203,0.793c-1.938,0.952-3.21,2.161-3.811,3.63c-0.602,1.469-0.515,2.993,0.261,4.572
		c0.822,1.677,1.994,2.734,3.52,3.175c1.521,0.44,3.266,0.18,5.229-0.783c1.963-0.964,3.235-2.182,3.82-3.657
		c0.583-1.475,0.463-3.05-0.359-4.725C51.751,345.764,50.599,344.762,49.07,344.339z"/>
	<path style="fill:#0B4C9E;" d="M47.222,368.287c0.682-2.592,2.354-4.728,5.014-6.408c2.66-1.68,5.307-2.271,7.939-1.773
		c2.633,0.497,4.683,1.908,6.149,4.23c0.925,1.465,1.345,3.077,1.257,4.836c-0.034,0.747-0.158,1.472-0.376,2.176l0.107,0.171
		l2.198-1.39l2.243,3.551l-17.248,10.895l-2.243-3.551l2.367-1.495l-0.107-0.169c-0.687-0.039-1.43-0.218-2.229-0.532
		c-1.67-0.648-2.969-1.705-3.895-3.17C46.932,373.333,46.54,370.876,47.222,368.287z M59.701,364.26
		c-1.563-0.275-3.268,0.171-5.116,1.34c-1.849,1.167-2.984,2.515-3.406,4.043c-0.424,1.528-0.136,3.082,0.861,4.66
		c0.939,1.487,2.192,2.36,3.758,2.617s3.263-0.191,5.088-1.345c1.827-1.153,2.961-2.492,3.401-4.017
		c0.44-1.523,0.19-3.03-0.749-4.518C62.542,365.461,61.263,364.535,59.701,364.26z"/>
	<path style="fill:#0B4C9E;" d="M57.905,389.054l16.402-12.131l2.497,3.376l-16.401,12.132L57.905,389.054z M75.292,372.066
		c0.094-0.634,0.421-1.157,0.979-1.57c0.557-0.412,1.152-0.57,1.787-0.477c0.634,0.098,1.156,0.421,1.568,0.979
		c0.413,0.557,0.57,1.152,0.477,1.787c-0.095,0.634-0.421,1.157-0.979,1.569c-0.557,0.412-1.152,0.571-1.787,0.477
		c-0.635-0.096-1.156-0.422-1.569-0.979C75.355,373.295,75.196,372.701,75.292,372.066z M79.692,378.016
		c0.095-0.635,0.42-1.159,0.979-1.571c0.557-0.412,1.152-0.57,1.787-0.476s1.156,0.421,1.569,0.978
		c0.412,0.558,0.57,1.154,0.477,1.788c-0.096,0.635-0.422,1.158-0.979,1.57c-0.558,0.412-1.154,0.569-1.788,0.476
		c-0.634-0.095-1.157-0.422-1.569-0.979C79.756,379.244,79.597,378.649,79.692,378.016z"/>
	<path style="fill:#0B4C9E;" d="M63.689,396.962l15.493-13.271l2.732,3.188l-6.229,5.335l6.506,7.596l6.229-5.336l2.73,3.19
		l-15.492,13.271l-2.732-3.189l6.38-5.465l-6.505-7.595l-6.38,5.464L63.689,396.962z"/>
	<path style="fill:#0B4C9E;" d="M82.786,414.519c-0.027-2.791,1.018-5.295,3.135-7.514c2.117-2.217,4.571-3.379,7.36-3.481
		c2.788-0.103,5.235,0.849,7.337,2.855c2.354,2.246,3.417,4.976,3.189,8.188c-0.155,1.438-0.559,2.748-1.209,3.933l-3.184-3.038
		c0.326-0.61,0.488-1.284,0.49-2.021c0.076-1.586-0.561-3.023-1.911-4.312c-1.195-1.143-2.626-1.643-4.292-1.499
		s-3.199,0.947-4.598,2.413c-1.4,1.466-2.132,3.034-2.196,4.706c-0.065,1.669,0.501,3.075,1.696,4.218
		c1.39,1.324,2.893,1.932,4.513,1.819c0.715-0.055,1.39-0.241,2.023-0.557l3.038,2.899c-1.189,0.743-2.488,1.218-3.899,1.421
		c-3.159,0.375-5.926-0.569-8.298-2.835C83.878,419.708,82.813,417.31,82.786,414.519z"/>
	<path style="fill:#0B4C9E;" d="M96.794,431.039l12.646-16.006l3.295,2.604l-4.215,5.336l3.923,3.099
		c1.842,1.456,2.925,3.127,3.251,5.017c0.326,1.888-0.123,3.607-1.346,5.155c-1.224,1.549-2.792,2.382-4.705,2.503
		c-1.912,0.12-3.79-0.549-5.631-2.003L96.794,431.039z M102.444,430.662l3.924,3.1c0.857,0.678,1.682,0.99,2.474,0.934
		c0.79-0.054,1.476-0.447,2.054-1.181c0.579-0.731,0.803-1.489,0.674-2.271c-0.131-0.783-0.623-1.513-1.481-2.19l-3.923-3.1
		L102.444,430.662z"/>
	<path style="fill:#0B4C9E;" d="M113.579,443.994l11.142-17.09l3.519,2.293l-4.369,6.703l2.514,1.638l9.563-3.316l4.021,2.622
		l-11.333,3.833l0.695,13.583l-4.356-2.839l-0.497-10.591l-2.68-1.747l-4.697,7.205L113.579,443.994z"/>
	<path style="fill:#0B4C9E;" d="M134.218,454.042c-0.711-2.583-0.337-5.269,1.121-8.059c1.457-2.787,3.45-4.628,5.978-5.518
		c2.526-0.891,5.007-0.699,7.441,0.572c1.536,0.804,2.708,1.988,3.513,3.553c0.346,0.663,0.603,1.354,0.769,2.073l0.177,0.091
		l1.205-2.303l3.722,1.945l-9.453,18.078l-3.722-1.945l1.297-2.482l-0.176-0.093c-0.614,0.312-1.346,0.531-2.195,0.658
		c-1.771,0.278-3.424,0.017-4.959-0.788C136.501,458.554,134.927,456.625,134.218,454.042z M142.991,444.298
		c-1.489,0.545-2.74,1.788-3.753,3.726c-1.015,1.938-1.32,3.673-0.918,5.206c0.401,1.536,1.43,2.734,3.083,3.6
		c1.56,0.815,3.081,0.941,4.564,0.379c1.484-0.564,2.726-1.804,3.727-3.717c1.001-1.915,1.309-3.642,0.926-5.182
		c-0.384-1.539-1.355-2.716-2.914-3.531C146.052,443.914,144.479,443.753,142.991,444.298z"/>
	<path style="fill:#0B4C9E;" d="M164.877,471.285l6.832-19.221l13.568,4.822l-1.272,3.58l-9.611-3.416l-5.56,15.641L164.877,471.285
		z"/>
	<path style="fill:#0B4C9E;" d="M180.212,484.651l6.929-27.129l4.069,1.039l-0.644,2.519l0.194,0.05
		c0.604-0.425,1.254-0.767,1.955-1.028c1.646-0.625,3.309-0.724,4.987-0.295c2.661,0.681,4.635,2.195,5.92,4.546
		c1.284,2.352,1.538,5.052,0.759,8.1c-0.778,3.05-2.296,5.297-4.55,6.745c-2.255,1.446-4.714,1.829-7.375,1.15
		c-1.704-0.437-3.12-1.306-4.245-2.612c-0.508-0.597-0.912-1.224-1.213-1.878l-0.193-0.05l-2.525,9.884L180.212,484.651z
		 M191.46,463.97c-1.315,0.89-2.24,2.381-2.773,4.474c-0.535,2.092-0.439,3.845,0.288,5.254c0.727,1.411,1.942,2.334,3.648,2.77
		c1.808,0.462,3.374,0.257,4.698-0.616s2.256-2.369,2.798-4.487c0.541-2.118,0.439-3.879-0.304-5.28
		c-0.743-1.399-2.019-2.332-3.827-2.794C194.283,462.855,192.772,463.082,191.46,463.97z"/>
	<path style="fill:#0B4C9E;" d="M208.794,480.835c-1.727-2.313-2.375-4.945-1.945-7.901c0.428-2.956,1.799-5.296,4.109-7.022
		c2.312-1.726,4.945-2.376,7.901-1.946c2.955,0.43,5.297,1.8,7.022,4.111c1.727,2.311,2.375,4.945,1.946,7.9
		c-0.429,2.956-1.798,5.297-4.11,7.022c-2.312,1.727-4.945,2.375-7.9,1.946C212.86,484.517,210.52,483.147,208.794,480.835z
		 M213.614,468.924c-1.314,1.063-2.117,2.609-2.412,4.642c-0.295,2.033,0.036,3.744,0.993,5.136
		c0.956,1.392,2.346,2.221,4.167,2.483c1.82,0.264,3.387-0.135,4.7-1.198c1.313-1.062,2.116-2.608,2.411-4.642
		c0.295-2.032-0.037-3.744-0.993-5.135c-0.957-1.394-2.346-2.221-4.167-2.484C216.493,467.461,214.926,467.861,213.614,468.924z"/>
	<path style="fill:#0B4C9E;" d="M231.253,486.561l0.571-20.392l5.997,0.168l5.057,12.347l0.8,0.021l5.739-12.044l5.998,0.168
		l-0.57,20.392l-4.199-0.117l0.403-14.394l0.051-0.398l-0.2-0.006l-5.352,11.054l-4.797-0.135l-4.726-11.336l-0.2-0.005l0.029,0.4
		l-0.402,14.396L231.253,486.561z"/>
	<path style="fill:#0B4C9E;" d="M262.263,484.242c-1.993-1.791-3.128-4.254-3.405-7.388c-0.277-3.135,0.407-5.758,2.054-7.873
		c1.646-2.112,3.837-3.291,6.574-3.532c1.726-0.153,3.352,0.212,4.875,1.094c0.648,0.371,1.236,0.813,1.764,1.33l0.199-0.019
		l-0.229-2.589l4.185-0.372l1.799,20.32l-4.184,0.371l-0.246-2.789l-0.199,0.019c-0.35,0.593-0.848,1.172-1.493,1.737
		c-1.34,1.19-2.874,1.862-4.601,2.014C266.619,486.807,264.255,486.034,262.263,484.242z M264.39,471.304
		c-0.959,1.264-1.342,2.983-1.149,5.161c0.192,2.179,0.872,3.805,2.038,4.879c1.166,1.075,2.679,1.53,4.538,1.365
		c1.754-0.155,3.103-0.87,4.047-2.146c0.944-1.274,1.321-2.988,1.131-5.14c-0.19-2.15-0.862-3.771-2.017-4.86
		c-1.154-1.09-2.607-1.557-4.361-1.401C266.757,469.328,265.349,470.042,264.39,471.304z"/>
	<path style="fill:#0B4C9E;" d="M284.948,488.921l-1.477-8.065l1.967-0.36l1.533-17.157l8.853-1.622l7.517,15.498l1.967-0.359
		l1.479,8.064l-3.738,0.686l-0.793-4.328l-14.361,2.631l0.793,4.328L284.948,488.921z M289.766,479.703l9.246-1.694l-5.651-11.979
		l-2.558,0.469L289.766,479.703z"/>
	<path style="fill:#0B4C9E;" d="M309.882,476.747c-2.313-1.352-3.922-3.534-4.826-6.549c-0.905-3.014-0.764-5.722,0.422-8.124
		c1.187-2.402,3.095-3.998,5.727-4.788c1.659-0.497,3.325-0.468,4.996,0.088c0.709,0.233,1.375,0.548,1.995,0.946l0.191-0.058
		l-0.747-2.489l4.023-1.208l5.863,19.54l-4.022,1.207l-0.806-2.683l-0.191,0.058c-0.222,0.651-0.592,1.319-1.111,2.003
		c-1.072,1.437-2.438,2.403-4.098,2.901C314.667,478.38,312.194,478.099,309.882,476.747z M309.354,463.647
		c-0.686,1.43-0.713,3.192-0.085,5.287c0.629,2.094,1.622,3.55,2.981,4.367c1.358,0.818,2.932,0.957,4.72,0.421
		c1.686-0.506,2.862-1.479,3.53-2.918s0.691-3.193,0.07-5.263c-0.621-2.068-1.605-3.52-2.956-4.354
		c-1.351-0.832-2.868-0.996-4.554-0.49C311.274,461.232,310.038,462.216,309.354,463.647z"/>
	<path style="fill:#0B4C9E;" d="M345.976,463.176c-3.831-1.207-6.705-3.716-8.622-7.528c-1.918-3.811-2.219-7.614-0.905-11.41
		c1.315-3.796,3.866-6.646,7.653-8.552c4.336-2.181,8.485-2.358,12.449-0.531c1.731,0.771,3.278,1.889,4.643,3.353l-4.11,2.066
		c-0.908-0.736-1.935-1.295-3.081-1.674c-2.613-0.863-5.255-0.625-7.923,0.717c-2.692,1.354-4.452,3.314-5.28,5.881
		c-0.829,2.566-0.548,5.23,0.842,7.994c1.391,2.763,3.362,4.576,5.917,5.44c2.554,0.865,5.177,0.62,7.868-0.733
		c2.74-1.379,4.512-3.463,5.316-6.257c0.379-1.205,0.507-2.464,0.385-3.776l4.109-2.065c0.314,2.169,0.254,4.215-0.183,6.136
		c-0.859,4.463-3.409,7.761-7.649,9.894C353.617,464.034,349.807,464.383,345.976,463.176z"/>
	<path style="fill:#0B4C9E;" d="M371.586,453.656l-6.52-20.125l7.522-4.94l15.88,13.976l-3.677,2.415L372,433.523l-2.173,1.426
		l5.436,16.29L371.586,453.656z"/>
	<path style="fill:#0B4C9E;" d="M391.216,437.116c-2.869-0.305-5.242-1.619-7.119-3.942c-1.875-2.322-2.662-4.919-2.357-7.789
		c0.305-2.868,1.619-5.241,3.941-7.118c2.324-1.876,4.92-2.663,7.789-2.357c2.868,0.304,5.242,1.62,7.119,3.942
		s2.662,4.919,2.357,7.788c-0.305,2.868-1.619,5.241-3.942,7.118S394.085,437.419,391.216,437.116z M385.753,425.484
		c-0.113,1.686,0.477,3.327,1.768,4.924c1.29,1.598,2.771,2.519,4.441,2.762c1.672,0.244,3.223-0.212,4.654-1.368
		c1.431-1.157,2.203-2.577,2.316-4.262c0.111-1.686-0.477-3.327-1.768-4.924c-1.29-1.598-2.771-2.519-4.441-2.762
		c-1.672-0.244-3.223,0.212-4.654,1.368S385.866,423.799,385.753,425.484z"/>
	<path style="fill:#0B4C9E;" d="M410.437,424.545l-14.322-14.526l7.263-7.161c1.387-1.365,2.796-2.101,4.229-2.205
		c1.435-0.103,2.666,0.368,3.696,1.412c1.105,1.122,1.576,2.36,1.416,3.716c-0.099,0.66-0.301,1.216-0.605,1.664l0.112,0.114
		c0.569-0.41,1.231-0.688,1.985-0.834c1.586-0.291,3.044,0.238,4.373,1.586c1.162,1.178,1.688,2.604,1.582,4.282
		c-0.105,1.678-0.881,3.229-2.324,4.65L410.437,424.545z M404.722,412.767l3.988-3.932c1.14-1.123,1.193-2.207,0.164-3.252
		c-0.936-0.949-1.974-0.862-3.113,0.262l-3.986,3.932L404.722,412.767z M410.761,418.891l4.272-4.214
		c0.627-0.616,0.951-1.265,0.976-1.942c0.023-0.68-0.246-1.304-0.807-1.874c-0.507-0.513-1.09-0.752-1.75-0.719
		s-1.303,0.358-1.93,0.977l-4.272,4.212L410.761,418.891z"/>
	<path style="fill:#0B4C9E;" d="M425.05,406.069c-2.675,0.152-5.223-0.776-7.643-2.787c-2.42-2.012-3.801-4.346-4.141-7.003
		c-0.341-2.658,0.367-5.043,2.123-7.155c1.107-1.333,2.511-2.23,4.211-2.689c0.72-0.199,1.448-0.305,2.187-0.316l0.127-0.153
		l-1.999-1.662l2.684-3.229l15.69,13.036l-2.685,3.229l-2.152-1.788l-0.128,0.153c0.175,0.666,0.235,1.427,0.183,2.284
		c-0.1,1.789-0.704,3.351-1.812,4.684C429.94,404.785,427.724,405.917,425.05,406.069z M417.365,395.446
		c0.221,1.57,1.172,3.054,2.854,4.452c1.683,1.396,3.315,2.06,4.899,1.989s2.973-0.824,4.165-2.26
		c1.125-1.354,1.567-2.814,1.328-4.383s-1.19-3.043-2.852-4.424c-1.661-1.38-3.285-2.044-4.87-1.993
		c-1.586,0.053-2.941,0.756-4.066,2.109C417.63,392.372,417.143,393.875,417.365,395.446z"/>
	<path style="fill:#0B4C9E;" d="M430.85,382.667l-6.303-4.247l2.348-3.484l5.971,4.025c0.995,0.67,1.963,0.904,2.903,0.702
		c0.94-0.203,1.768-0.836,2.483-1.896c0.864-1.282,1.414-2.455,1.648-3.521c0.15-0.508,0.201-0.94,0.15-1.296l-8.127-5.479
		l2.348-3.481l16.917,11.4l-2.348,3.483l-5.805-3.912c0.005,0.518-0.049,1.027-0.163,1.529c-0.265,1.205-0.829,2.448-1.693,3.731
		c-1.386,2.056-2.99,3.29-4.812,3.702S432.708,383.919,430.85,382.667z"/>
	<path style="fill:#0B4C9E;" d="M442.7,364.79l-6.677-3.631l2.006-3.689l6.325,3.438c1.055,0.573,2.041,0.716,2.957,0.425
		c0.917-0.291,1.682-0.999,2.293-2.122c0.738-1.359,1.174-2.58,1.307-3.661c0.102-0.521,0.111-0.957,0.027-1.307l-8.609-4.681
		l2.006-3.69l17.922,9.745l-2.006,3.689l-6.15-3.344c0.055,0.516,0.049,1.028-0.017,1.54c-0.149,1.224-0.594,2.516-1.333,3.873
		c-1.185,2.179-2.664,3.561-4.438,4.144C446.539,366.102,444.668,365.859,442.7,364.79z"/>
	<path style="fill:#0B4C9E;" d="M464.853,350.317l-18.794-7.932l1.633-3.87l12.529,5.288l0.354,0.192l0.154-0.369l-9.305-13.956
		l1.789-4.237l18.794,7.93l-1.633,3.871l-12.53-5.289l-0.353-0.191l-0.155,0.368l9.306,13.956L464.853,350.317z"/>
	<path style="fill:#0B4C9E;" d="M474.044,327.753l-19.51-5.962l1.228-4.017l7.842,2.397l2.923-9.563l-7.842-2.396l1.228-4.017
		l19.509,5.962l-1.227,4.017l-8.034-2.456l-2.923,9.564l8.033,2.455L474.044,327.753z"/>
	<path style="fill:#0B4C9E;" d="M480.862,304.401l-20.02-3.922l0.808-4.123l13.347,2.616l0.385,0.115l0.077-0.393l-11.962-11.759
		l0.885-4.515l20.02,3.923l-0.809,4.121l-13.346-2.615l-0.385-0.116l-0.077,0.394l11.962,11.76L480.862,304.401z"/>
</g>
<g>
	<path style="fill:#0B4C9E;" d="M39.609,164.571l-15.601-7.244l1.938-4.172l15.601,7.244c2.08,0.966,3.941,1.169,5.583,0.608
		c1.643-0.561,2.912-1.808,3.812-3.743c0.898-1.935,1.032-3.71,0.4-5.327c-0.632-1.616-1.986-2.907-4.067-3.873l-15.601-7.244
		l1.938-4.172l15.6,7.244c3.266,1.517,5.406,3.636,6.422,6.356c1.016,2.721,0.781,5.677-0.701,8.869
		c-1.482,3.192-3.59,5.28-6.324,6.259C45.874,166.355,42.874,166.087,39.609,164.571z"/>
	<path style="fill:#0B4C9E;" d="M60.998,145.06L37.03,130.585l2.172-3.596l13.354,8.063l1.552-2.568l-3.645-9.442l2.482-4.109
		l4.221,11.195l13.552-1.163l-2.688,4.452l-10.566,0.861l-1.654,2.74l7.361,4.444L60.998,145.06z"/>
	<path style="fill:#0B4C9E;" d="M71.766,127.768l-16.541-11.941l2.458-3.405l2.432,1.756l0.117-0.163
		c-0.282-0.565-0.465-1.224-0.548-1.974c-0.146-1.618,0.264-3.098,1.231-4.44l1.404-1.945l3.244,2.34l-1.522,2.108
		c-0.952,1.319-1.319,2.706-1.104,4.161c0.216,1.456,1.006,2.675,2.367,3.657l8.92,6.438L71.766,127.768z"/>
	<path style="fill:#0B4C9E;" d="M79.459,112.999c-2.678,0.098-5.206-0.884-7.585-2.942c-2.378-2.06-3.712-4.422-3.997-7.086
		c-0.287-2.664,0.47-5.034,2.268-7.111c1.135-1.31,2.557-2.177,4.265-2.604c0.725-0.184,1.455-0.275,2.192-0.271l0.131-0.15
		l-1.966-1.702l2.749-3.175l15.423,13.352l-2.749,3.176l-2.117-1.833l-0.131,0.152c0.162,0.668,0.207,1.431,0.137,2.286
		c-0.136,1.787-0.771,3.335-1.906,4.646C84.374,111.814,82.136,112.9,79.459,112.999z M71.991,102.22
		c0.189,1.576,1.11,3.078,2.764,4.509c1.652,1.432,3.272,2.128,4.857,2.09c1.585-0.039,2.988-0.764,4.21-2.175
		c1.152-1.331,1.625-2.781,1.417-4.355c-0.208-1.573-1.128-3.067-2.761-4.48c-1.634-1.415-3.243-2.111-4.83-2.092
		c-1.586,0.02-2.955,0.694-4.107,2.025C72.318,99.154,71.803,100.646,71.991,102.22z"/>
	<path style="fill:#0B4C9E;" d="M79.257,81.071c-0.679-0.001-1.263-0.247-1.752-0.739s-0.737-1.081-0.745-1.77
		c-0.008-0.688,0.232-1.276,0.725-1.766c0.491-0.489,1.086-0.732,1.783-0.731c0.698,0.002,1.291,0.249,1.78,0.739
		c0.489,0.493,0.729,1.082,0.718,1.77c-0.012,0.688-0.263,1.277-0.754,1.766C80.52,80.829,79.935,81.073,79.257,81.071z
		 M97.157,108.008l-2.681-2.693l4.252-4.232l-17.074-17.15l2.977-2.963l19.755,19.842L97.157,108.008z"/>
	<path style="fill:#0B4C9E;" d="M86.13,74.403c-0.679-0.028-1.252-0.297-1.721-0.809c-0.469-0.511-0.693-1.11-0.674-1.798
		c0.021-0.688,0.285-1.267,0.796-1.735s1.115-0.688,1.813-0.659c0.697,0.031,1.279,0.3,1.749,0.811
		c0.469,0.511,0.683,1.111,0.645,1.797c-0.039,0.688-0.313,1.267-0.824,1.735S86.807,74.433,86.13,74.403z M102.205,92.39
		L88.409,77.362l3.095-2.841l13.795,15.027L102.205,92.39z"/>
	<path style="fill:#0B4C9E;" d="M108.224,86.712l-12.681-15.98l3.289-2.611l1.741,2.194l0.157-0.125
		c-0.082-0.616-0.027-1.341,0.164-2.173c0.465-1.731,1.418-3.168,2.859-4.313c1.984-1.574,3.98-2.222,5.988-1.944
		c2.01,0.279,3.884,1.515,5.624,3.707l7.584,9.558l-3.29,2.61l-7.335-9.243c-1.11-1.399-2.235-2.183-3.374-2.353
		c-1.139-0.169-2.345,0.252-3.618,1.264c-1.275,1.012-1.98,2.278-2.118,3.799c-0.137,1.522,0.351,2.983,1.461,4.382l6.838,8.617
		L108.224,86.712z"/>
	<path style="fill:#0B4C9E;" d="M121.308,68.353l3.863-2.497c0.446,0.347,1.002,0.591,1.665,0.734
		c1.364,0.292,2.752-0.017,4.163-0.93c1.23-0.796,2.004-1.565,2.317-2.309c0.313-0.742,0.282-1.405-0.094-1.986
		c-0.131-0.202-0.296-0.357-0.492-0.468c-0.199-0.11-0.454-0.159-0.765-0.15c-0.311,0.011-0.6,0.031-0.865,0.061
		c-0.268,0.028-0.635,0.123-1.104,0.283c-0.468,0.16-0.843,0.292-1.126,0.395c-0.282,0.104-0.712,0.263-1.288,0.477
		c-0.575,0.213-1.001,0.378-1.277,0.491c-4.104,1.512-7.01,0.945-8.719-1.697c-0.869-1.344-1.014-2.917-0.434-4.721
		c0.58-1.805,1.878-3.358,3.894-4.661c2.8-1.811,5.472-2.269,8.02-1.375c1.133,0.38,2.138,1,3.014,1.863l-3.695,2.39
		c-0.469-0.332-0.946-0.531-1.435-0.598c-1.261-0.232-2.542,0.072-3.84,0.911c-1.008,0.651-1.646,1.32-1.92,2.004
		c-0.271,0.685-0.234,1.294,0.113,1.833c0.13,0.201,0.295,0.357,0.492,0.467c0.198,0.11,0.453,0.159,0.764,0.149
		s0.602-0.039,0.872-0.088c0.271-0.048,0.629-0.145,1.075-0.29c0.445-0.145,0.821-0.277,1.126-0.396
		c0.306-0.117,0.73-0.281,1.277-0.492c0.546-0.21,0.976-0.368,1.288-0.476c4.104-1.51,7.011-0.943,8.72,1.698
		c0.927,1.434,1.075,3.076,0.446,4.927c-0.629,1.852-2.063,3.502-4.303,4.949c-2.911,1.883-5.754,2.371-8.53,1.467
		C123.273,69.893,122.198,69.239,121.308,68.353z"/>
	<path style="fill:#0B4C9E;" d="M142.4,62.528l-12.99-24.805l3.722-1.948l7.237,13.819l2.657-1.392l1.781-9.963l4.252-2.228
		l-2.194,11.762l12.189,6.032l-4.605,2.412l-9.482-4.741l-2.835,1.484l3.989,7.618L142.4,62.528z"/>
	<path style="fill:#0B4C9E;" d="M159.783,50.8c-2.433-1.122-4.244-3.14-5.436-6.052c-1.191-2.913-1.313-5.622-0.365-8.128
		c0.949-2.505,2.694-4.278,5.237-5.318c1.604-0.658,3.265-0.788,4.98-0.396c0.729,0.163,1.422,0.414,2.078,0.75l0.186-0.076
		l-0.985-2.406l3.889-1.59l7.724,18.881l-3.887,1.591l-1.062-2.592l-0.185,0.075c-0.158,0.67-0.462,1.371-0.912,2.103
		c-0.929,1.532-2.195,2.626-3.799,3.282C164.704,51.964,162.216,51.923,159.783,50.8z M156.19,28.652l0.766-6.58l4.628-1.893
		l0.015,0.037l-2.076,7.072L156.19,28.652z M157.992,37.812c-0.542,1.489-0.4,3.246,0.428,5.271c0.828,2.023,1.957,3.377,3.39,4.058
		c1.431,0.683,3.011,0.67,4.738-0.037c1.629-0.666,2.706-1.748,3.231-3.245c0.526-1.497,0.381-3.246-0.438-5.245
		s-1.938-3.349-3.363-4.048c-1.424-0.698-2.951-0.716-4.58-0.05C159.671,35.223,158.535,36.323,157.992,37.812z"/>
	<path style="fill:#0B4C9E;" d="M192.06,39.026c-2.458-1.511-4.034-3.718-4.727-6.624c-0.693-2.905-0.285-5.585,1.227-8.044
		c1.51-2.458,3.718-4.033,6.623-4.727c2.904-0.693,5.587-0.284,8.044,1.227c2.458,1.51,4.034,3.719,4.728,6.624
		c0.693,2.905,0.284,5.586-1.227,8.044c-1.511,2.458-3.72,4.034-6.624,4.727C197.199,40.946,194.518,40.538,192.06,39.026z
		 M192.141,26.176c-0.828,1.473-1.004,3.208-0.527,5.205c0.477,1.999,1.416,3.466,2.82,4.407c1.402,0.939,2.999,1.195,4.789,0.77
		c1.789-0.428,3.098-1.378,3.926-2.849c0.827-1.473,1.003-3.207,0.526-5.205c-0.477-1.998-1.417-3.466-2.819-4.406
		c-1.403-0.939-3-1.197-4.789-0.77C194.275,23.755,192.967,24.705,192.141,26.176z"/>
	<path style="fill:#0B4C9E;" d="M212.845,36.994l-3.601-27.768l4.165-0.54l1.312,10.116l0.199-0.027
		c0.403-0.617,0.882-1.175,1.436-1.678c1.298-1.19,2.806-1.897,4.525-2.121c2.724-0.353,5.117,0.325,7.181,2.035
		c2.063,1.708,3.298,4.124,3.702,7.244c0.405,3.122-0.174,5.77-1.731,7.949c-1.561,2.178-3.702,3.444-6.426,3.798
		c-1.745,0.226-3.382-0.059-4.911-0.855c-0.692-0.367-1.3-0.8-1.821-1.296l-0.198,0.026l0.334,2.578L212.845,36.994z M216.62,21.157
		c-0.893,1.312-1.199,3.04-0.922,5.182s1.015,3.734,2.213,4.774c1.196,1.042,2.668,1.449,4.413,1.223
		c1.852-0.239,3.23-1.009,4.137-2.311c0.907-1.301,1.221-3.036,0.939-5.204c-0.281-2.169-1.026-3.766-2.235-4.793
		c-1.208-1.025-2.738-1.419-4.59-1.179C218.83,19.075,217.512,19.844,216.62,21.157z"/>
	<path style="fill:#0B4C9E;" d="M237.305,31.632c-1.999-1.948-3.037-4.455-3.118-7.521c-0.081-3.065,0.825-5.623,2.72-7.674
		c1.893-2.051,4.293-3.114,7.198-3.19c3.252-0.085,5.937,1.084,8.055,3.51c0.91,1.123,1.556,2.333,1.937,3.63l-4.398,0.116
		c-0.204-0.662-0.566-1.253-1.087-1.773c-1.071-1.172-2.54-1.733-4.405-1.685c-1.654,0.044-3.017,0.707-4.09,1.988
		c-1.074,1.282-1.584,2.937-1.53,4.962c0.054,2.026,0.649,3.65,1.788,4.875c1.14,1.224,2.535,1.813,4.188,1.771
		c1.919-0.051,3.409-0.69,4.471-1.918c0.466-0.546,0.811-1.155,1.033-1.828l4.198-0.11c-0.311,1.369-0.892,2.624-1.742,3.767
		c-1.961,2.506-4.581,3.802-7.86,3.889C241.756,34.516,239.303,33.58,237.305,31.632z M236.98,4.031l3.799-0.1l2.688,3.331
		l0.601-0.016l2.509-3.467l3.799-0.1l0.002,0.04l-4.447,5.878l-4.199,0.11l-4.749-5.637L236.98,4.031z"/>
	<path style="fill:#0B4C9E;" d="M257.149,34.084l0.884-20.382l4.196,0.184l-0.884,20.38L257.149,34.084z M258.514,10
		c-0.458-0.5-0.672-1.097-0.643-1.789c0.03-0.692,0.295-1.274,0.797-1.747c0.5-0.472,1.097-0.693,1.79-0.664
		c0.692,0.031,1.274,0.303,1.746,0.817s0.692,1.118,0.663,1.81c-0.03,0.694-0.303,1.269-0.816,1.727
		c-0.514,0.457-1.117,0.672-1.809,0.642C259.549,10.767,258.973,10.5,258.514,10z"/>
	<path style="fill:#0B4C9E;" d="M265.424,34.33l2.354-20.264l4.172,0.484l-0.323,2.782l0.199,0.022
		c0.379-0.492,0.931-0.965,1.654-1.419c1.554-0.893,3.244-1.233,5.072-1.021c2.516,0.293,4.385,1.248,5.606,2.866
		s1.67,3.818,1.347,6.6L284.099,36.5l-4.172-0.485l1.361-11.721c0.206-1.774-0.033-3.124-0.718-4.05
		c-0.684-0.925-1.834-1.482-3.45-1.669c-1.615-0.188-3.011,0.207-4.185,1.185c-1.174,0.977-1.863,2.353-2.07,4.128l-1.27,10.927
		L265.424,34.33z"/>
	<path style="fill:#0B4C9E;" d="M289.67,34.953c-1.354-2.313-1.684-5.005-0.994-8.075c0.691-3.07,2.143-5.36,4.354-6.872
		s4.657-1.966,7.338-1.364c1.691,0.38,3.128,1.224,4.311,2.528c0.505,0.551,0.931,1.152,1.275,1.804l0.195,0.044l0.57-2.537
		l4.098,0.921l-4.476,19.904l-4.098-0.922l0.614-2.732l-0.195-0.044c-0.513,0.459-1.163,0.86-1.95,1.201
		c-1.64,0.726-3.305,0.897-4.996,0.518C293.037,38.722,291.021,37.264,289.67,34.953z M295.637,23.277
		c-1.299,0.911-2.188,2.432-2.667,4.566c-0.479,2.133-0.329,3.89,0.455,5.269c0.782,1.378,2.085,2.272,3.906,2.682
		c1.718,0.386,3.22,0.115,4.508-0.811c1.288-0.927,2.169-2.444,2.644-4.551c0.474-2.108,0.326-3.855-0.44-5.246
		c-0.769-1.388-2.01-2.276-3.727-2.662C298.494,22.115,296.933,22.367,295.637,23.277z"/>
	<path style="fill:#0B4C9E;" d="M322.33,37.215l4.44,1.824c-0.184,0.935-0.145,1.859,0.114,2.773
		c0.556,2.015,2.041,3.521,4.459,4.514c1.947,0.8,3.535,1.042,4.762,0.726c1.226-0.318,2.082-1.069,2.569-2.252
		c0.385-0.938,0.269-1.865-0.349-2.781c-0.618-0.917-1.631-1.911-3.036-2.979c-2.759-2.057-4.562-3.562-5.409-4.515
		c-2.378-2.563-3.004-5.213-1.878-7.952c0.861-2.096,2.497-3.55,4.907-4.361c2.409-0.812,5.044-0.63,7.905,0.547
		c3.798,1.561,6.101,3.992,6.905,7.293c0.343,1.41,0.394,2.901,0.151,4.473l-4.439-1.824c0.11-0.762,0.056-1.505-0.165-2.23
		c-0.529-1.659-1.879-2.935-4.049-3.826c-1.678-0.689-3.102-0.872-4.273-0.547c-1.172,0.326-1.98,1.031-2.428,2.116
		c-0.668,1.628,0.455,3.561,3.37,5.797c0.24,0.186,0.7,0.54,1.379,1.064c0.678,0.524,1.161,0.911,1.448,1.159
		c0.288,0.248,0.734,0.633,1.341,1.156s1.042,0.955,1.307,1.294c0.264,0.339,0.604,0.774,1.021,1.305
		c0.415,0.533,0.696,1.022,0.844,1.473c0.146,0.448,0.287,0.947,0.424,1.494c0.136,0.545,0.156,1.109,0.062,1.69
		s-0.269,1.18-0.522,1.796c-0.912,2.221-2.604,3.724-5.074,4.509c-2.473,0.786-5.261,0.541-8.369-0.737
		c-4.143-1.703-6.606-4.374-7.389-8.011C321.967,40.626,321.958,38.964,322.33,37.215z"/>
	<path style="fill:#0B4C9E;" d="M343.098,55.149l12.447-25.081l3.762,1.868l-10.758,21.676l4.12,2.045l-1.688,3.403L343.098,55.149z
		"/>
	<path style="fill:#0B4C9E;" d="M355.786,58.561c-0.705-2.797-0.292-5.477,1.239-8.041c1.532-2.564,3.696-4.199,6.494-4.905
		c2.798-0.705,5.479-0.291,8.043,1.24c2.563,1.532,4.197,3.697,4.903,6.494c0.705,2.798,0.292,5.478-1.24,8.042
		c-1.531,2.564-3.696,4.199-6.493,4.905c-2.798,0.705-5.479,0.291-8.043-1.24C358.126,63.524,356.491,61.359,355.786,58.561z
		 M364.813,49.417c-1.62,0.477-2.957,1.597-4.011,3.36c-1.053,1.763-1.404,3.469-1.057,5.123c0.349,1.653,1.313,2.951,2.893,3.895
		c1.579,0.942,3.18,1.177,4.8,0.7c1.62-0.476,2.956-1.595,4.011-3.359c1.053-1.763,1.404-3.47,1.057-5.122
		c-0.35-1.654-1.313-2.952-2.893-3.896C368.033,49.175,366.433,48.941,364.813,49.417z"/>
	<path style="fill:#0B4C9E;" d="M382.635,54.116l3.535,2.621l-6.349,15.957l2.089,1.548l13.419-10.717l3.535,2.62l-16.646,13.055
		l-7.231-5.358L382.635,54.116z"/>
	<path style="fill:#0B4C9E;" d="M391.23,82.972c-0.123-2.864,0.82-5.401,2.826-7.615c2.006-2.213,4.439-3.399,7.302-3.557
		c2.862-0.16,5.369,0.737,7.522,2.689c2.154,1.951,3.291,4.36,3.413,7.223c0.121,2.864-0.821,5.403-2.827,7.615l-0.939,1.037
		l-12.299-11.149c-0.892,1.46-1.234,2.93-1.03,4.412c0.205,1.48,0.87,2.732,1.997,3.754c1.383,1.252,2.802,1.911,4.259,1.972
		c0.626,0.063,1.266,0.013,1.918-0.151l3.26,2.955c-1.292,0.592-2.56,0.938-3.8,1.036c-3.089,0.151-5.818-0.848-8.189-2.997
		C392.489,88.244,391.351,85.835,391.23,82.972z M398.66,76.831l8.891,8.06c0.718-1.149,1.01-2.415,0.875-3.795
		c-0.133-1.381-0.832-2.645-2.097-3.791c-1.066-0.967-2.306-1.506-3.718-1.616S399.882,75.959,398.66,76.831z"/>
	<path style="fill:#0B4C9E;" d="M404.392,98.753l15.193-13.613l2.803,3.128l-2.085,1.868l0.134,0.148
		c0.609-0.116,1.336-0.105,2.179,0.035c1.755,0.362,3.247,1.226,4.475,2.597c1.69,1.887,2.456,3.842,2.299,5.861
		c-0.159,2.022-1.28,3.967-3.365,5.835l-9.087,8.141l-2.802-3.128l8.788-7.874c1.33-1.192,2.046-2.363,2.147-3.508
		c0.101-1.147-0.393-2.326-1.478-3.537c-1.086-1.212-2.393-1.84-3.919-1.886c-1.527-0.047-2.956,0.527-4.286,1.719l-8.193,7.34
		L404.392,98.753z"/>
	<path style="fill:#0B4C9E;" d="M423.494,110.714l2.724,3.708c-0.319,0.466-0.53,1.035-0.634,1.705
		c-0.211,1.379,0.182,2.746,1.176,4.101c0.867,1.181,1.682,1.907,2.442,2.176c0.759,0.268,1.418,0.198,1.979-0.212
		c0.193-0.142,0.339-0.315,0.437-0.52c0.099-0.205,0.133-0.462,0.104-0.771c-0.029-0.311-0.067-0.598-0.112-0.862
		c-0.046-0.264-0.162-0.625-0.35-1.083s-0.342-0.826-0.46-1.101c-0.12-0.276-0.305-0.694-0.552-1.256
		c-0.247-0.563-0.438-0.979-0.566-1.247c-1.754-4.007-1.361-6.942,1.175-8.805c1.29-0.946,2.853-1.184,4.688-0.712
		c1.836,0.471,3.464,1.674,4.885,3.609c1.972,2.686,2.589,5.326,1.849,7.922c-0.311,1.155-0.869,2.194-1.68,3.119l-2.605-3.547
		c0.305-0.487,0.476-0.976,0.513-1.466c0.155-1.274-0.224-2.534-1.14-3.781c-0.71-0.966-1.415-1.564-2.113-1.795
		c-0.7-0.232-1.307-0.158-1.822,0.222c-0.194,0.141-0.34,0.315-0.438,0.519c-0.097,0.204-0.133,0.461-0.103,0.771
		c0.029,0.31,0.075,0.598,0.139,0.865c0.064,0.268,0.183,0.62,0.354,1.056s0.324,0.804,0.462,1.101
		c0.135,0.298,0.325,0.713,0.566,1.245c0.242,0.533,0.426,0.953,0.552,1.258c1.752,4.008,1.359,6.942-1.177,8.804
		c-1.374,1.011-3.007,1.257-4.892,0.74c-1.886-0.517-3.618-1.851-5.196-4c-2.052-2.794-2.71-5.603-1.971-8.428
		C422.073,112.765,422.664,111.654,423.494,110.714z"/>
	<path style="fill:#0B4C9E;" d="M430.555,131.409l23.99-14.439l2.166,3.599l-13.367,8.044l1.547,2.571l10.052,1.186l2.476,4.113
		l-11.87-1.493l-5.3,12.526l-2.682-4.456l4.172-9.747l-1.65-2.742l-7.368,4.436L430.555,131.409z"/>
	<path style="fill:#0B4C9E;" d="M443.298,148.075c0.977-2.495,2.884-4.423,5.721-5.785c2.836-1.362,5.533-1.644,8.091-0.845
		c2.558,0.798,4.431,2.436,5.619,4.912c0.75,1.563,0.979,3.213,0.689,4.949c-0.119,0.737-0.326,1.443-0.624,2.119l0.087,0.181
		l2.343-1.125l1.818,3.786l-18.392,8.828l-1.816-3.786l2.523-1.212l-0.086-0.181c-0.679-0.118-1.396-0.381-2.153-0.786
		c-1.584-0.836-2.752-2.036-3.502-3.599C442.428,153.055,442.321,150.57,443.298,148.075z M456.158,145.518
		c-1.52-0.454-3.266-0.208-5.236,0.738c-1.971,0.947-3.255,2.154-3.851,3.624c-0.597,1.469-0.491,3.045,0.317,4.728
		c0.762,1.587,1.905,2.598,3.432,3.035c1.524,0.436,3.262,0.186,5.209-0.748c1.946-0.935,3.227-2.134,3.842-3.598
		c0.613-1.463,0.54-2.988-0.222-4.575C458.841,147.04,457.677,145.971,456.158,145.518z"/>
</g>
<circle style="fill:#0B4C9E;" cx="22.126" cy="235.618" r="4.5"/>
<circle style="fill:#0B4C9E;" cx="477.126" cy="235.618" r="4.5"/>
</svg>
