<?xml version="1.0" encoding="utf-8"?>
<!-- Generator: Adobe Illustrator 22.0.1, SVG Export Plug-In . SVG Version: 6.00 Build 0)  -->
<svg version="1.1"
	 id="svg8" inkscape:version="0.92.3 (2405546, 2018-03-11)" sodipodi:docname="vodafone.svg" xmlns:cc="http://creativecommons.org/ns#" xmlns:dc="http://purl.org/dc/elements/1.1/" xmlns:inkscape="http://www.inkscape.org/namespaces/inkscape" xmlns:rdf="http://www.w3.org/1999/02/22-rdf-syntax-ns#" xmlns:sodipodi="http://sodipodi.sourceforge.net/DTD/sodipodi-0.dtd" xmlns:svg="http://www.w3.org/2000/svg"
	 xmlns="http://www.w3.org/2000/svg" xmlns:xlink="http://www.w3.org/1999/xlink" x="0px" y="0px" viewBox="0 0 15.625 15.627"
	 style="enable-background:new 0 0 15.625 15.627;" xml:space="preserve">
<path style="fill:#EE3023;" d="M11.148,0.756C9.732,1.055,8.607,2.374,8.611,3.87c0,0.05,0.004,0.103,0.01,0.128
	c2.379,0.58,3.458,2.016,3.465,4.001c0.006,1.986-1.562,4.162-4.212,4.171c-2.146,0.007-4.38-1.825-4.39-4.767
	C3.478,5.458,4.529,3.584,5.87,2.473c1.309-1.082,3.102-1.779,4.727-1.784c0.197,0,0.397,0.017,0.532,0.057
	C10.121,0.273,9,0,7.813,0C3.498,0,0,3.498,0,7.813s3.498,7.813,7.813,7.813c4.315,0,7.812-3.498,7.812-7.813
	C15.625,4.693,13.792,2.008,11.148,0.756z"/>
</svg>
